<svg xmlns="http://www.w3.org/2000/svg" viewBox="0 0 172.151 172.151"><path d="M94.992 27.9a3.573 3.573 0 00-3.832.67 3.572 3.572 0 00-.937 3.777c8.126 23.446 1.654 49.526-16.488 66.441-18.141 16.918-44.614 21.557-67.43 11.814a3.573 3.573 0 00-3.832.672 3.572 3.572 0 00-.937 3.777c3.195 9.216 8.213 17.533 14.916 24.72 12.722 13.643 29.998 21.515 48.642 22.166.836.03 1.666.044 2.499.044 17.728 0 34.54-6.611 47.573-18.764 13.643-12.724 21.517-29.998 22.168-48.643.651-18.644-5.998-36.426-18.72-50.069-6.704-7.187-14.65-12.774-23.622-16.605zm35.213 66.425c-.584 16.74-7.653 32.251-19.905 43.675-12.25 11.423-28.237 17.373-44.957 16.811-16.741-.585-32.251-7.654-43.674-19.904-4.208-4.513-7.678-9.519-10.363-14.948 23.46 6.862 49.127.987 67.294-15.954 18.165-16.939 25.826-42.128 20.608-66.018a62.487 62.487 0 0114.188 11.382c11.425 12.25 17.394 28.217 16.809 44.956zM47.4 31.377c.696.696 1.609 1.045 2.521 1.045s1.825-.348 2.521-1.045l5.107-5.107 5.107 5.107c.696.696 1.609 1.045 2.521 1.045s1.825-.348 2.521-1.045a3.564 3.564 0 000-5.042l-5.106-5.106 4.972-4.972a3.564 3.564 0 000-5.042 3.564 3.564 0 00-5.042 0l-4.972 4.972-4.973-4.973a3.564 3.564 0 00-5.042 0 3.564 3.564 0 000 5.042l4.973 4.973-5.108 5.106a3.564 3.564 0 000 5.042zM171.107 65.559L166 60.452l4.973-4.973c1.393-1.393 1.393-3.649 0-5.042s-3.649-1.393-5.042 0l-4.973 4.973-4.973-4.973c-1.393-1.393-3.649-1.393-5.042 0s-1.393 3.649 0 5.042l4.973 4.973-5.107 5.107a3.564 3.564 0 002.521 6.087c.912 0 1.825-.348 2.521-1.045l5.107-5.107 5.107 5.107c.696.696 1.609 1.045 2.521 1.045s1.825-.348 2.521-1.045a3.566 3.566 0 000-5.042z"/><path d="M6.087 95.562l5.107-5.107 5.107 5.107a3.556 3.556 0 002.521 1.045 3.564 3.564 0 002.521-6.087l-5.107-5.107 4.973-4.973c1.393-1.393 1.393-3.649 0-5.042s-3.649-1.393-5.042 0l-4.973 4.973-4.972-4.973c-1.393-1.393-3.649-1.393-5.042 0s-1.393 3.649 0 5.042l4.973 4.973-5.108 5.106a3.564 3.564 0 002.521 6.087c.912 0 1.824-.348 2.521-1.044z"/></svg>