<svg aria-hidden="true" style="position: absolute; width: 0; height: 0; overflow: hidden;" version="1.1" xmlns="http://www.w3.org/2000/svg" xmlns:xlink="http://www.w3.org/1999/xlink">
<defs>
<symbol id="icon-search" viewBox="0 0 32 32">
<path fill="none" stroke="#fff" style="stroke: var(--color1, #fff)" stroke-linejoin="round" stroke-linecap="round" stroke-miterlimit="4" stroke-width="2.6667" d="M14.667 25.333c5.891 0 10.667-4.776 10.667-10.667s-4.776-10.667-10.667-10.667v0c-5.891 0-10.667 4.776-10.667 10.667s4.776 10.667 10.667 10.667v0zM28 28l-5.8-5.8"></path>
</symbol>
<symbol id="icon-user" viewBox="0 0 32 32">
<path stroke-linejoin="miter" stroke-linecap="butt" stroke-miterlimit="4" stroke-width="2.6667" d="M22.667 9.333c0 3.682-2.985 6.667-6.667 6.667s-6.667-2.985-6.667-6.667c0-3.682 2.985-6.667 6.667-6.667s6.667 2.985 6.667 6.667z"></path>
<path stroke-linejoin="round" stroke-linecap="round" stroke-miterlimit="4" stroke-width="2.6667" d="M22.667 18.667h0.469c2.017 0 3.719 1.502 3.969 3.504l0.521 4.165c0.199 1.592-1.042 2.997-2.646 2.997h-17.958c-1.604 0-2.845-1.406-2.646-2.997l0.521-4.165c0.25-2.002 1.952-3.504 3.969-3.504h0.469"></path>
</symbol>
<symbol id="icon-logo" viewBox="0 0 32 32">
<path fill="none" stroke="#818181" style="stroke: var(--color2, #818181)" stroke-linejoin="round" stroke-linecap="round" stroke-miterlimit="4" stroke-width="2.6667" d="M26.427 2.667h-20.853c-1.605 0-2.907 1.301-2.907 2.907v0 20.853c0 1.605 1.301 2.907 2.907 2.907v0h20.853c1.605 0 2.907-1.301 2.907-2.907v0-20.853c0-1.605-1.301-2.907-2.907-2.907v0zM9.333 2.667v26.667M22.667 2.667v26.667M2.667 16h26.667M2.667 9.333h6.667M2.667 22.667h6.667M22.667 22.667h6.667M22.667 9.333h6.667"></path>
</symbol>
<symbol id="icon-close" viewBox="0 0 32 32">
<path d="M31.344 27.802l-11.834-11.835 11.77-11.77c0.421-0.441 0.68-1.039 0.68-1.697 0-1.358-1.101-2.459-2.459-2.459-0.659 0-1.257 0.259-1.698 0.68l0.001-0.001-11.77 11.77-11.77-11.77c-0.441-0.421-1.039-0.68-1.697-0.68-1.358 0-2.459 1.101-2.459 2.459 0 0.659 0.259 1.257 0.68 1.698l-0.001-0.001 11.77 11.77-11.835 11.835c-0.445 0.445-0.721 1.060-0.721 1.739 0 1.358 1.101 2.458 2.458 2.458 0 0 0.001 0 0.001 0h-0c0.001 0 0.002 0 0.004 0 0.678 0 1.292-0.275 1.735-0.72l11.835-11.835 11.834 11.835c0.48 0.48 1.109 0.72 1.739 0.72s1.259-0.24 1.739-0.72c0.444-0.445 0.719-1.060 0.719-1.738s-0.275-1.294-0.72-1.739v0z"></path>
</symbol>
<symbol id="icon-email" viewBox="0 0 32 32">
<path d="M32 6.4c0-1.76-1.44-3.2-3.2-3.2h-25.6c-1.76 0-3.2 1.44-3.2 3.2v19.2c0 1.76 1.44 3.2 3.2 3.2h25.6c1.76 0 3.2-1.44 3.2-3.2v-19.2zM28.8 6.4l-12.8 8-12.8-8h25.6zM28.8 25.6h-25.6v-16l12.8 8 12.8-8v16z"></path>
</symbol>
<symbol id="icon-key" viewBox="0 0 32 32">
<path d="M16.945 13.091c-1.231-3.423-4.449-5.827-8.229-5.827-0.63 0-1.244 0.067-1.835 0.193l0.057-0.010c-3.331 0.669-6.036 3.331-6.735 6.662-0.13 0.566-0.205 1.215-0.205 1.882 0 4.822 3.907 8.732 8.728 8.736h0c0 0 0 0 0 0 3.774 0 6.988-2.4 8.199-5.757l0.019-0.061h6.327v2.909c0 1.6 1.309 2.909 2.909 2.909s2.909-1.309 2.909-2.909v-2.909c1.6 0 2.909-1.309 2.909-2.909s-1.309-2.909-2.909-2.909h-12.145zM8.727 18.909c-1.6 0-2.909-1.309-2.909-2.909s1.309-2.909 2.909-2.909 2.909 1.309 2.909 2.909-1.309 2.909-2.909 2.909z"></path>
</symbol>
<symbol id="icon-lockin" viewBox="0 0 32 32">
<path d="M27.648 14.592c0-0.96-0.256-1.088-1.152-1.088-4.672 0.064-9.408 0-14.080 0.064-0.768 0-1.088-0.128-1.024-0.96 0.064-1.408 0-2.816 0.064-4.224 0.064-2.304 1.856-4.224 4.096-4.48 2.432-0.32 4.608 1.024 5.376 3.328 0.192 0.768 0.192 1.536 0.192 2.368 0 0.384 0 0.64 0.576 0.704 2.688 0.384 2.944 0.128 2.624-2.496v-0.128c-0.384-3.456-2.944-6.272-6.4-6.912-3.52-0.704-6.912 0.896-8.64 3.968-1.152 2.048-1.088 4.224-1.088 6.4 0 2.304 0 2.368-2.304 2.368-0.832 0-0.896 0.256-0.896 0.96 0 5.312 0.064 10.688 0 16 0 0.768 0.256 0.896 0.96 0.896 3.456-0.064 6.912 0 10.368 0h10.368c0.832 0 1.088-0.128 1.088-1.024-0.192-5.184-0.192-10.432-0.128-15.744zM16.384 25.664c-1.856 0.064-3.328-1.344-3.328-3.2 0-1.792 1.408-3.2 3.136-3.264 1.792 0 3.2 1.344 3.264 3.136 0.064 1.856-1.28 3.264-3.072 3.328z"></path>
</symbol>
<symbol id="icon-login" viewBox="0 0 32 32">
<path d="M0 16.003c0 0.609 0.494 1.103 1.103 1.103h21.004l-4.097 4.091c-0.43 0.43-0.43 1.128 0 1.558 0.212 0.212 0.494 0.321 0.776 0.321s0.564-0.109 0.776-0.321l5.969-5.969c0.43-0.43 0.43-1.128 0-1.558l-5.969-5.969c-0.43-0.43-1.128-0.43-1.558 0s-0.43 1.128 0 1.558l4.091 4.091h-20.991c-0.609 0-1.103 0.487-1.103 1.096z"></path>
<path d="M25.415 31.686c3.635 0 6.585-2.956 6.585-6.591v-18.19c0-3.635-2.956-6.591-6.585-6.591h-18.19c-3.635 0-6.585 2.956-6.585 6.591v3.738c0 0.609 0.494 1.096 1.096 1.096 0.609 0 1.103-0.494 1.103-1.096v-3.738c0-2.417 1.968-4.392 4.386-4.392h18.19c2.417 0 4.386 1.968 4.386 4.392v18.19c0 2.417-1.968 4.392-4.386 4.392h-18.19c-2.417 0-4.386-1.968-4.386-4.392v-3.693c0-0.609-0.494-1.103-1.103-1.103s-1.096 0.494-1.096 1.103v3.693c0 3.635 2.956 6.591 6.585 6.591h18.19z"></path>
</symbol>
<symbol id="icon-submit" viewBox="0 0 32 32">
<path d="M11.717 28.111c-0 0-0 0-0 0-0.51 0-0.971-0.207-1.306-0.541l-9.87-9.869c-0.334-0.334-0.541-0.796-0.541-1.306s0.207-0.972 0.541-1.306v0c0.334-0.334 0.796-0.541 1.306-0.541s0.972 0.207 1.306 0.541v0l8.488 8.486 16.972-19.009c0.34-0.379 0.831-0.617 1.378-0.617 1.020 0 1.847 0.827 1.847 1.847 0 0.473-0.178 0.905-0.471 1.232l0.002-0.002-18.274 20.467c-0.328 0.367-0.798 0.601-1.323 0.616l-0.003 0-0.052 0.001z"></path>
</symbol>
</defs>
</svg>
