<svg aria-hidden="true" style="position: absolute; width: 0; height: 0; overflow: hidden;" version="1.1" xmlns="http://www.w3.org/2000/svg" xmlns:xlink="http://www.w3.org/1999/xlink">
<defs>
<symbol id="icon-moon1" viewBox="0 0 32 32">
<path d="M18.839 16c0-6.137 4.464-11.232 10.322-12.215-2.788-2.36-6.391-3.785-10.322-3.785-8.822 0-16 7.178-16 16s7.178 16 16 16c3.93 0 7.534-1.425 10.322-3.785-5.858-0.983-10.322-6.077-10.322-12.215zM18.839 28.903c-7.115 0-12.903-5.788-12.903-12.903s5.788-12.903 12.903-12.903c1.098 0 2.185 0.141 3.235 0.415-0.96 0.704-1.843 1.52-2.626 2.437-2.39 2.798-3.706 6.368-3.706 10.052s1.316 7.254 3.706 10.052c0.783 0.917 1.666 1.733 2.626 2.437-1.050 0.273-2.137 0.415-3.235 0.415z"></path>
</symbol>
<symbol id="icon-moon" viewBox="0 0 32 32">
<path d="M17.657 5.186c-0.24-0.103-0.52-0.054-0.712 0.125s-0.26 0.454-0.174 0.702c1.511 4.358 0.307 9.206-3.065 12.35s-8.293 4.007-12.534 2.196c-0.241-0.102-0.52-0.054-0.712 0.125s-0.26 0.454-0.174 0.702c0.594 1.713 1.527 3.259 2.773 4.595 2.365 2.536 5.576 3.999 9.042 4.12 0.155 0.006 0.31 0.008 0.465 0.008 3.295 0 6.42-1.229 8.843-3.488 2.536-2.365 4-5.576 4.121-9.042s-1.115-6.771-3.48-9.307c-1.246-1.336-2.723-2.374-4.391-3.087zM24.203 17.533c-0.109 3.112-1.423 5.995-3.7 8.118s-5.249 3.229-8.357 3.125c-3.112-0.109-5.995-1.423-8.118-3.7-0.782-0.839-1.427-1.769-1.926-2.779 4.361 1.276 9.132 0.183 12.509-2.966s4.801-7.831 3.831-12.272c0.972 0.569 1.855 1.277 2.637 2.116 2.124 2.277 3.233 5.245 3.125 8.357z"></path>
<path d="M8.811 5.832c0.129 0.129 0.299 0.194 0.469 0.194s0.339-0.065 0.469-0.194l0.949-0.949 0.949 0.949c0.129 0.129 0.299 0.194 0.469 0.194s0.339-0.065 0.469-0.194c0.259-0.259 0.259-0.678 0-0.937l-0.949-0.949 0.924-0.924c0.259-0.259 0.259-0.678 0-0.937s-0.678-0.259-0.937 0l-0.924 0.924-0.924-0.924c-0.259-0.259-0.678-0.259-0.937 0s-0.259 0.678 0 0.937l0.924 0.924-0.95 0.949c-0.259 0.259-0.259 0.678 0 0.937z"></path>
<path d="M31.806 12.186l-0.949-0.949 0.924-0.924c0.259-0.259 0.259-0.678 0-0.937s-0.678-0.259-0.937 0l-0.924 0.924-0.924-0.924c-0.259-0.259-0.678-0.259-0.937 0s-0.259 0.678 0 0.937l0.924 0.924-0.949 0.949c-0.259 0.259-0.259 0.678 0 0.937 0.129 0.129 0.299 0.194 0.469 0.194s0.339-0.065 0.469-0.194l0.949-0.949 0.949 0.949c0.129 0.129 0.299 0.194 0.469 0.194s0.339-0.065 0.469-0.194c0.259-0.259 0.259-0.678 0-0.937z"></path>
<path d="M1.131 17.763l0.949-0.949 0.949 0.949c0.129 0.129 0.299 0.194 0.469 0.194s0.339-0.065 0.469-0.194c0.259-0.259 0.259-0.678 0-0.937l-0.949-0.949 0.924-0.924c0.259-0.259 0.259-0.678 0-0.937s-0.678-0.259-0.937 0l-0.924 0.924-0.924-0.924c-0.259-0.259-0.678-0.259-0.937 0s-0.259 0.678 0 0.937l0.924 0.924-0.95 0.949c-0.259 0.259-0.259 0.678 0 0.937 0.129 0.129 0.299 0.194 0.469 0.194s0.339-0.065 0.469-0.194z"></path>
</symbol>
<symbol id="icon-sun" viewBox="0 0 32 32">
<path d="M16 6.594c-5.244 0-9.512 4.269-9.512 9.512s4.269 9.512 9.512 9.512c5.244 0 9.512-4.269 9.512-9.512 0-5.25-4.269-9.512-9.512-9.512zM16 23.063c-3.838 0-6.963-3.125-6.963-6.962s3.125-6.963 6.963-6.963c3.837 0 6.962 3.125 6.962 6.963s-3.125 6.962-6.963 6.962z"></path>
<path d="M16 4.675c0.706 0 1.275-0.569 1.275-1.275v-1.438c0-0.706-0.569-1.275-1.275-1.275s-1.275 0.569-1.275 1.275v1.438c0 0.706 0.569 1.275 1.275 1.275z"></path>
<path d="M16 27.325c-0.706 0-1.275 0.569-1.275 1.275v1.431c0 0.706 0.569 1.275 1.275 1.275s1.275-0.569 1.275-1.275v-1.431c0-0.7-0.569-1.275-1.275-1.275z"></path>
<path d="M30.038 14.725h-1.438c-0.706 0-1.275 0.569-1.275 1.275s0.569 1.275 1.275 1.275h1.438c0.706 0 1.275-0.569 1.275-1.275s-0.569-1.275-1.275-1.275z"></path>
<path d="M3.4 14.725h-1.438c-0.706 0-1.275 0.569-1.275 1.275s0.569 1.275 1.275 1.275h1.431c0.706 0 1.275-0.569 1.275-1.275 0.006-0.706-0.569-1.275-1.269-1.275z"></path>
<path d="M25.025 5.175l-1.019 1.013c-0.5 0.5-0.5 1.306 0 1.806s1.306 0.5 1.806 0l1.012-1.013c0.5-0.5 0.5-1.306 0-1.806s-1.306-0.5-1.8 0z"></path>
<path d="M6.188 24.006l-1.013 1.012c-0.5 0.5-0.5 1.306 0 1.806s1.306 0.5 1.806 0l1.013-1.012c0.5-0.5 0.5-1.306 0-1.806s-1.306-0.494-1.806 0z"></path>
<path d="M25.813 24.006c-0.5-0.5-1.306-0.5-1.806 0s-0.5 1.306 0 1.806l1.012 1.012c0.5 0.5 1.306 0.5 1.806 0s0.5-1.306 0-1.806l-1.012-1.012z"></path>
<path d="M6.188 7.994c0.5 0.5 1.306 0.5 1.806 0s0.5-1.306 0-1.806l-1.013-1.013c-0.5-0.5-1.306-0.5-1.806 0s-0.5 1.306 0 1.806l1.013 1.013z"></path>
</symbol>
</defs>
</svg>
